<svg xmlns="http://www.w3.org/2000/svg" xmlns:xlink="http://www.w3.org/1999/xlink" width="200" zoomAndPan="magnify" viewBox="0 0 150 74.999997" height="100" preserveAspectRatio="xMidYMid meet" version="1.0"><defs><g/></defs><g fill="#000000" fill-opacity="1"><g transform="translate(8.107869, 63.663317)"><g><path d="M 0.71875 -14.609375 C 0.71875 -16.160156 1.085938 -17.351562 1.828125 -18.1875 C 2.566406 -19.019531 3.675781 -19.4375 5.15625 -19.4375 C 6.644531 -19.4375 7.757812 -19.019531 8.5 -18.1875 C 9.238281 -17.351562 9.609375 -16.160156 9.609375 -14.609375 L 9.609375 -14 L 6.75 -14 L 6.75 -14.796875 C 6.75 -15.492188 6.613281 -15.984375 6.34375 -16.265625 C 6.082031 -16.546875 5.71875 -16.6875 5.25 -16.6875 C 4.769531 -16.6875 4.394531 -16.546875 4.125 -16.265625 C 3.863281 -15.984375 3.734375 -15.492188 3.734375 -14.796875 C 3.734375 -14.140625 3.878906 -13.554688 4.171875 -13.046875 C 4.460938 -12.546875 4.828125 -12.070312 5.265625 -11.625 C 5.710938 -11.175781 6.1875 -10.726562 6.6875 -10.28125 C 7.1875 -9.832031 7.65625 -9.34375 8.09375 -8.8125 C 8.53125 -8.28125 8.894531 -7.675781 9.1875 -7 C 9.488281 -6.320312 9.640625 -5.523438 9.640625 -4.609375 C 9.640625 -3.054688 9.257812 -1.863281 8.5 -1.03125 C 7.738281 -0.195312 6.617188 0.21875 5.140625 0.21875 C 3.648438 0.21875 2.523438 -0.195312 1.765625 -1.03125 C 1.003906 -1.863281 0.625 -3.054688 0.625 -4.609375 L 0.625 -5.796875 L 3.484375 -5.796875 L 3.484375 -4.421875 C 3.484375 -3.722656 3.625 -3.234375 3.90625 -2.953125 C 4.195312 -2.679688 4.578125 -2.546875 5.046875 -2.546875 C 5.523438 -2.546875 5.90625 -2.679688 6.1875 -2.953125 C 6.46875 -3.234375 6.609375 -3.722656 6.609375 -4.421875 C 6.609375 -5.078125 6.460938 -5.65625 6.171875 -6.15625 C 5.878906 -6.664062 5.515625 -7.144531 5.078125 -7.59375 C 4.640625 -8.039062 4.164062 -8.488281 3.65625 -8.9375 C 3.15625 -9.382812 2.6875 -9.875 2.25 -10.40625 C 1.8125 -10.9375 1.445312 -11.539062 1.15625 -12.21875 C 0.863281 -12.894531 0.71875 -13.691406 0.71875 -14.609375 Z M 0.71875 -14.609375 "/></g></g></g><g fill="#000000" fill-opacity="1"><g transform="translate(18.373203, 63.663317)"><g><path d="M 4.125 0 L 1.09375 0 L 1.09375 -19.21875 L 4.125 -19.21875 L 4.125 -10.984375 L 7.546875 -10.984375 L 7.546875 -19.21875 L 10.625 -19.21875 L 10.625 0 L 7.546875 0 L 7.546875 -8.234375 L 4.125 -8.234375 Z M 4.125 0 "/></g></g></g><g fill="#000000" fill-opacity="1"><g transform="translate(30.093244, 63.663317)"><g><path d="M 10.875 0 L 7.828125 0 L 7.296875 -3.484375 L 3.59375 -3.484375 L 3.078125 0 L 0.296875 0 L 3.375 -19.21875 L 7.796875 -19.21875 Z M 3.984375 -6.09375 L 6.890625 -6.09375 L 5.4375 -15.8125 Z M 3.984375 -6.09375 "/></g></g></g><g fill="#000000" fill-opacity="1"><g transform="translate(41.264335, 63.663317)"><g><path d="M 1.09375 -19.21875 L 5.875 -19.21875 C 7.394531 -19.21875 8.523438 -18.8125 9.265625 -18 C 10.003906 -17.195312 10.375 -16.019531 10.375 -14.46875 L 10.375 -4.75 C 10.375 -3.195312 10.003906 -2.015625 9.265625 -1.203125 C 8.523438 -0.398438 7.394531 0 5.875 0 L 1.09375 0 Z M 4.125 -16.46875 L 4.125 -2.75 L 5.8125 -2.75 C 6.289062 -2.75 6.664062 -2.882812 6.9375 -3.15625 C 7.21875 -3.425781 7.359375 -3.910156 7.359375 -4.609375 L 7.359375 -14.609375 C 7.359375 -15.296875 7.21875 -15.773438 6.9375 -16.046875 C 6.664062 -16.328125 6.289062 -16.46875 5.8125 -16.46875 Z M 4.125 -16.46875 "/></g></g></g><g fill="#000000" fill-opacity="1"><g transform="translate(52.462872, 63.663317)"><g><path d="M 3.875 -4.421875 C 3.875 -3.722656 4.015625 -3.234375 4.296875 -2.953125 C 4.578125 -2.671875 4.957031 -2.53125 5.4375 -2.53125 C 5.914062 -2.53125 6.296875 -2.671875 6.578125 -2.953125 C 6.859375 -3.234375 7 -3.722656 7 -4.421875 L 7 -14.796875 C 7 -15.492188 6.859375 -15.984375 6.578125 -16.265625 C 6.296875 -16.546875 5.914062 -16.6875 5.4375 -16.6875 C 4.957031 -16.6875 4.578125 -16.546875 4.296875 -16.265625 C 4.015625 -15.984375 3.875 -15.492188 3.875 -14.796875 Z M 0.84375 -14.609375 C 0.84375 -16.160156 1.238281 -17.351562 2.03125 -18.1875 C 2.820312 -19.019531 3.957031 -19.4375 5.4375 -19.4375 C 6.914062 -19.4375 8.046875 -19.019531 8.828125 -18.1875 C 9.617188 -17.351562 10.015625 -16.160156 10.015625 -14.609375 L 10.015625 -4.609375 C 10.015625 -3.054688 9.617188 -1.863281 8.828125 -1.03125 C 8.046875 -0.195312 6.914062 0.21875 5.4375 0.21875 C 3.957031 0.21875 2.820312 -0.195312 2.03125 -1.03125 C 1.238281 -1.863281 0.84375 -3.054688 0.84375 -4.609375 Z M 0.84375 -14.609375 "/></g></g></g><g fill="#000000" fill-opacity="1"><g transform="translate(63.332047, 63.663317)"><g><path d="M 7.796875 -10.234375 L 6.703125 0 L 2.546875 0 L 0.40625 -19.21875 L 3.34375 -19.21875 L 4.96875 -4.0625 L 6.421875 -19.21875 L 9.328125 -19.21875 L 10.84375 -3.953125 L 12.40625 -19.21875 L 15.046875 -19.21875 L 12.90625 0 L 8.890625 0 Z M 7.796875 -10.234375 "/></g></g></g><g fill="#000000" fill-opacity="1"><g transform="translate(78.784934, 63.663317)"><g/></g></g><g fill="#000000" fill-opacity="1"><g transform="translate(83.039284, 63.663317)"><g><path d="M 7.40625 0 C 7.375 -0.125 7.335938 -0.238281 7.296875 -0.34375 C 7.265625 -0.457031 7.234375 -0.597656 7.203125 -0.765625 C 7.179688 -0.929688 7.164062 -1.140625 7.15625 -1.390625 C 7.144531 -1.648438 7.140625 -1.972656 7.140625 -2.359375 L 7.140625 -5.375 C 7.140625 -6.269531 6.984375 -6.898438 6.671875 -7.265625 C 6.359375 -7.640625 5.851562 -7.828125 5.15625 -7.828125 L 4.125 -7.828125 L 4.125 0 L 1.09375 0 L 1.09375 -19.21875 L 5.65625 -19.21875 C 7.226562 -19.21875 8.363281 -18.847656 9.0625 -18.109375 C 9.769531 -17.378906 10.125 -16.273438 10.125 -14.796875 L 10.125 -13.28125 C 10.125 -11.3125 9.46875 -10.015625 8.15625 -9.390625 C 8.925781 -9.078125 9.453125 -8.566406 9.734375 -7.859375 C 10.015625 -7.160156 10.15625 -6.304688 10.15625 -5.296875 L 10.15625 -2.328125 C 10.15625 -1.859375 10.171875 -1.441406 10.203125 -1.078125 C 10.242188 -0.722656 10.335938 -0.363281 10.484375 0 Z M 4.125 -16.46875 L 4.125 -10.5625 L 5.296875 -10.5625 C 5.867188 -10.5625 6.3125 -10.707031 6.625 -11 C 6.945312 -11.300781 7.109375 -11.832031 7.109375 -12.59375 L 7.109375 -14.5 C 7.109375 -15.1875 6.984375 -15.6875 6.734375 -16 C 6.492188 -16.3125 6.109375 -16.46875 5.578125 -16.46875 Z M 4.125 -16.46875 "/></g></g></g><g fill="#000000" fill-opacity="1"><g transform="translate(94.073146, 63.663317)"><g><path d="M 1.09375 -19.21875 L 4.125 -19.21875 L 4.125 0 L 1.09375 0 Z M 1.09375 -19.21875 "/></g></g></g><g fill="#000000" fill-opacity="1"><g transform="translate(99.288155, 63.663317)"><g><path d="M 1.09375 -19.21875 L 5.875 -19.21875 C 7.394531 -19.21875 8.523438 -18.8125 9.265625 -18 C 10.003906 -17.195312 10.375 -16.019531 10.375 -14.46875 L 10.375 -4.75 C 10.375 -3.195312 10.003906 -2.015625 9.265625 -1.203125 C 8.523438 -0.398438 7.394531 0 5.875 0 L 1.09375 0 Z M 4.125 -16.46875 L 4.125 -2.75 L 5.8125 -2.75 C 6.289062 -2.75 6.664062 -2.882812 6.9375 -3.15625 C 7.21875 -3.425781 7.359375 -3.910156 7.359375 -4.609375 L 7.359375 -14.609375 C 7.359375 -15.296875 7.21875 -15.773438 6.9375 -16.046875 C 6.664062 -16.328125 6.289062 -16.46875 5.8125 -16.46875 Z M 4.125 -16.46875 "/></g></g></g><g fill="#000000" fill-opacity="1"><g transform="translate(110.486692, 63.663317)"><g><path d="M 4.125 -11.125 L 8.265625 -11.125 L 8.265625 -8.375 L 4.125 -8.375 L 4.125 -2.75 L 9.328125 -2.75 L 9.328125 0 L 1.09375 0 L 1.09375 -19.21875 L 9.328125 -19.21875 L 9.328125 -16.46875 L 4.125 -16.46875 Z M 4.125 -11.125 "/></g></g></g><g fill="#000000" fill-opacity="1"><g transform="translate(120.58734, 63.663317)"><g><path d="M 7.40625 0 C 7.375 -0.125 7.335938 -0.238281 7.296875 -0.34375 C 7.265625 -0.457031 7.234375 -0.597656 7.203125 -0.765625 C 7.179688 -0.929688 7.164062 -1.140625 7.15625 -1.390625 C 7.144531 -1.648438 7.140625 -1.972656 7.140625 -2.359375 L 7.140625 -5.375 C 7.140625 -6.269531 6.984375 -6.898438 6.671875 -7.265625 C 6.359375 -7.640625 5.851562 -7.828125 5.15625 -7.828125 L 4.125 -7.828125 L 4.125 0 L 1.09375 0 L 1.09375 -19.21875 L 5.65625 -19.21875 C 7.226562 -19.21875 8.363281 -18.847656 9.0625 -18.109375 C 9.769531 -17.378906 10.125 -16.273438 10.125 -14.796875 L 10.125 -13.28125 C 10.125 -11.3125 9.46875 -10.015625 8.15625 -9.390625 C 8.925781 -9.078125 9.453125 -8.566406 9.734375 -7.859375 C 10.015625 -7.160156 10.15625 -6.304688 10.15625 -5.296875 L 10.15625 -2.328125 C 10.15625 -1.859375 10.171875 -1.441406 10.203125 -1.078125 C 10.242188 -0.722656 10.335938 -0.363281 10.484375 0 Z M 4.125 -16.46875 L 4.125 -10.5625 L 5.296875 -10.5625 C 5.867188 -10.5625 6.3125 -10.707031 6.625 -11 C 6.945312 -11.300781 7.109375 -11.832031 7.109375 -12.59375 L 7.109375 -14.5 C 7.109375 -15.1875 6.984375 -15.6875 6.734375 -16 C 6.492188 -16.3125 6.109375 -16.46875 5.578125 -16.46875 Z M 4.125 -16.46875 "/></g></g></g><g fill="#000000" fill-opacity="1"><g transform="translate(131.621201, 63.663317)"><g><path d="M 0.71875 -14.609375 C 0.71875 -16.160156 1.085938 -17.351562 1.828125 -18.1875 C 2.566406 -19.019531 3.675781 -19.4375 5.15625 -19.4375 C 6.644531 -19.4375 7.757812 -19.019531 8.5 -18.1875 C 9.238281 -17.351562 9.609375 -16.160156 9.609375 -14.609375 L 9.609375 -14 L 6.75 -14 L 6.75 -14.796875 C 6.75 -15.492188 6.613281 -15.984375 6.34375 -16.265625 C 6.082031 -16.546875 5.71875 -16.6875 5.25 -16.6875 C 4.769531 -16.6875 4.394531 -16.546875 4.125 -16.265625 C 3.863281 -15.984375 3.734375 -15.492188 3.734375 -14.796875 C 3.734375 -14.140625 3.878906 -13.554688 4.171875 -13.046875 C 4.460938 -12.546875 4.828125 -12.070312 5.265625 -11.625 C 5.710938 -11.175781 6.1875 -10.726562 6.6875 -10.28125 C 7.1875 -9.832031 7.65625 -9.34375 8.09375 -8.8125 C 8.53125 -8.28125 8.894531 -7.675781 9.1875 -7 C 9.488281 -6.320312 9.640625 -5.523438 9.640625 -4.609375 C 9.640625 -3.054688 9.257812 -1.863281 8.5 -1.03125 C 7.738281 -0.195312 6.617188 0.21875 5.140625 0.21875 C 3.648438 0.21875 2.523438 -0.195312 1.765625 -1.03125 C 1.003906 -1.863281 0.625 -3.054688 0.625 -4.609375 L 0.625 -5.796875 L 3.484375 -5.796875 L 3.484375 -4.421875 C 3.484375 -3.722656 3.625 -3.234375 3.90625 -2.953125 C 4.195312 -2.679688 4.578125 -2.546875 5.046875 -2.546875 C 5.523438 -2.546875 5.90625 -2.679688 6.1875 -2.953125 C 6.46875 -3.234375 6.609375 -3.722656 6.609375 -4.421875 C 6.609375 -5.078125 6.460938 -5.65625 6.171875 -6.15625 C 5.878906 -6.664062 5.515625 -7.144531 5.078125 -7.59375 C 4.640625 -8.039062 4.164062 -8.488281 3.65625 -8.9375 C 3.15625 -9.382812 2.6875 -9.875 2.25 -10.40625 C 1.8125 -10.9375 1.445312 -11.539062 1.15625 -12.21875 C 0.863281 -12.894531 0.71875 -13.691406 0.71875 -14.609375 Z M 0.71875 -14.609375 "/></g></g></g><g fill="#000000" fill-opacity="1"><g transform="translate(44.187169, 34.435272)"><g><path d="M 1.015625 -20.671875 C 1.015625 -22.867188 1.535156 -24.554688 2.578125 -25.734375 C 3.628906 -26.921875 5.207031 -27.515625 7.3125 -27.515625 C 9.40625 -27.515625 10.972656 -26.921875 12.015625 -25.734375 C 13.066406 -24.554688 13.59375 -22.867188 13.59375 -20.671875 L 13.59375 -19.8125 L 9.5625 -19.8125 L 9.5625 -20.9375 C 9.5625 -21.925781 9.375 -22.617188 9 -23.015625 C 8.625 -23.421875 8.097656 -23.625 7.421875 -23.625 C 6.742188 -23.625 6.21875 -23.421875 5.84375 -23.015625 C 5.46875 -22.617188 5.28125 -21.925781 5.28125 -20.9375 C 5.28125 -20.007812 5.488281 -19.1875 5.90625 -18.46875 C 6.320312 -17.757812 6.835938 -17.085938 7.453125 -16.453125 C 8.078125 -15.816406 8.742188 -15.179688 9.453125 -14.546875 C 10.171875 -13.910156 10.835938 -13.21875 11.453125 -12.46875 C 12.078125 -11.71875 12.597656 -10.863281 13.015625 -9.90625 C 13.429688 -8.945312 13.640625 -7.820312 13.640625 -6.53125 C 13.640625 -4.320312 13.101562 -2.628906 12.03125 -1.453125 C 10.957031 -0.273438 9.367188 0.3125 7.265625 0.3125 C 5.171875 0.3125 3.582031 -0.273438 2.5 -1.453125 C 1.425781 -2.628906 0.890625 -4.320312 0.890625 -6.53125 L 0.890625 -8.203125 L 4.9375 -8.203125 L 4.9375 -6.25 C 4.9375 -5.269531 5.132812 -4.582031 5.53125 -4.1875 C 5.9375 -3.800781 6.476562 -3.609375 7.15625 -3.609375 C 7.820312 -3.609375 8.351562 -3.800781 8.75 -4.1875 C 9.15625 -4.582031 9.359375 -5.269531 9.359375 -6.25 C 9.359375 -7.1875 9.148438 -8.007812 8.734375 -8.71875 C 8.328125 -9.4375 7.8125 -10.113281 7.1875 -10.75 C 6.5625 -11.382812 5.894531 -12.015625 5.1875 -12.640625 C 4.476562 -13.273438 3.8125 -13.96875 3.1875 -14.71875 C 2.5625 -15.476562 2.039062 -16.335938 1.625 -17.296875 C 1.21875 -18.253906 1.015625 -19.378906 1.015625 -20.671875 Z M 1.015625 -20.671875 "/></g></g></g><g fill="#000000" fill-opacity="1"><g transform="translate(58.718611, 34.435272)"><g/></g></g><g fill="#000000" fill-opacity="1"><g transform="translate(64.740995, 34.435272)"><g><path d="M 8.15625 -29.734375 L 11.65625 -29.734375 L 11.65625 2.53125 L 8.15625 2.53125 Z M 8.15625 -29.734375 "/></g></g></g><g fill="#000000" fill-opacity="1"><g transform="translate(84.168051, 34.435272)"><g/></g></g><g fill="#000000" fill-opacity="1"><g transform="translate(90.190436, 34.435272)"><g><path d="M 10.484375 0 C 10.441406 -0.175781 10.394531 -0.34375 10.34375 -0.5 C 10.289062 -0.65625 10.242188 -0.847656 10.203125 -1.078125 C 10.160156 -1.316406 10.132812 -1.617188 10.125 -1.984375 C 10.113281 -2.347656 10.109375 -2.800781 10.109375 -3.34375 L 10.109375 -7.609375 C 10.109375 -8.878906 9.882812 -9.773438 9.4375 -10.296875 C 9 -10.816406 8.289062 -11.078125 7.3125 -11.078125 L 5.828125 -11.078125 L 5.828125 0 L 1.546875 0 L 1.546875 -27.203125 L 8 -27.203125 C 10.226562 -27.203125 11.84375 -26.679688 12.84375 -25.640625 C 13.84375 -24.609375 14.34375 -23.039062 14.34375 -20.9375 L 14.34375 -18.8125 C 14.34375 -16.007812 13.410156 -14.171875 11.546875 -13.296875 C 12.628906 -12.847656 13.367188 -12.125 13.765625 -11.125 C 14.171875 -10.132812 14.375 -8.925781 14.375 -7.5 L 14.375 -3.296875 C 14.375 -2.628906 14.398438 -2.039062 14.453125 -1.53125 C 14.503906 -1.03125 14.632812 -0.519531 14.84375 0 Z M 5.828125 -23.3125 L 5.828125 -14.953125 L 7.5 -14.953125 C 8.300781 -14.953125 8.925781 -15.160156 9.375 -15.578125 C 9.832031 -15.992188 10.0625 -16.75 10.0625 -17.84375 L 10.0625 -20.515625 C 10.0625 -21.503906 9.882812 -22.21875 9.53125 -22.65625 C 9.1875 -23.09375 8.640625 -23.3125 7.890625 -23.3125 Z M 5.828125 -23.3125 "/></g></g></g></svg>